<svg id="Layer_1" data-name="Layer 1" xmlns="http://www.w3.org/2000/svg" viewBox="0 0 268.51 268.51"><defs><style>.cls-1{fill:none;stroke:#2c3674;stroke-miterlimit:10;stroke-width:6px;}.cls-2{fill:#2c3674;}</style></defs><circle class="cls-1" cx="134.45" cy="134.26" r="129.39"/><path class="cls-2" d="M199.22,116c-.3,1.86-.57,3.74-.93,5.59a39.6,39.6,0,0,1-8.41,17.67,33.55,33.55,0,0,1-2.56,2.64l-50.26,50.24c-2.25,2.25-3.39,2.26-5.62,0Q107.23,168,83,143.85c-3.93-3.93-7.51-8.11-9.86-13.24A41.9,41.9,0,0,1,69.58,108a39,39,0,0,1,9.09-21.37c6-7,13.42-11.18,22.74-11.78,7.27-.47,13.5,2.16,19.26,6.22a62.36,62.36,0,0,1,12.49,12c1.09,1.36,1.07,1.36,2.14,0,4.76-5.84,10.08-11.07,16.78-14.7,10.17-5.51,20.24-4.79,29.81,1.29C191.8,86,197,95.45,198.74,106.93c.17,1.08.32,2.16.48,3.24Zm-5.42-3.34c-.12-1.46-.11-3.28-.41-5.09-1.76-10.72-6.73-19.35-16.55-24.58a21.94,21.94,0,0,0-18.73-1.42,38.64,38.64,0,0,0-13.39,9.18,74.12,74.12,0,0,0-8.08,9.6,2.79,2.79,0,0,1-4.78,0c-.41-.53-.8-1.09-1.2-1.63a58.66,58.66,0,0,0-13.55-13.59c-3.8-2.63-7.89-4.67-12.59-4.93-9-.49-16.08,3.22-21.77,9.89A33.56,33.56,0,0,0,75,108.29a36.92,36.92,0,0,0,3.1,20.14c2.18,4.81,5.71,8.55,9.36,12.2q22.83,22.85,45.69,45.64c.84.85,1.26.92,2.15,0q24.67-24.75,49.43-49.44c.32-.33.65-.66.95-1A35.89,35.89,0,0,0,193.8,112.67Z"/><path class="cls-2" d="M133,99.24c.95-2,7.6-15,23-19,1.67-.43,18.44-4.45,31,7,11.6,10.57,11.5,27,8,37-1,2.91-2.09,4.62-14,18-23.46,26.33-32.11,34-38,39-4.21,3.54-7.75,6.29-10,8-4.36-4.22-13.37-12.92-25-24-24.23-23.1-30.62-28.72-34-40-1.22-4.08-5.85-19.53,3-33,.91-1.39,10.48-15.44,27-15C116.72,77.57,128.3,86.31,133,99.24Z"/></svg>