<svg id="Layer_1" data-name="Layer 1" xmlns="http://www.w3.org/2000/svg" viewBox="0 0 268.51 268.51"><defs><style>.cls-1{fill:none;stroke:#2c3674;stroke-miterlimit:10;stroke-width:6px;}.cls-2{fill:#2c3674;}</style></defs><circle class="cls-1" cx="134.26" cy="134.26" r="129.39"/><path class="cls-2" d="M199,116c-.31,1.86-.58,3.74-.94,5.59a39.59,39.59,0,0,1-8.4,17.67,35.44,35.44,0,0,1-2.56,2.64l-50.27,50.24c-2.25,2.25-3.38,2.26-5.62,0Q107,168,82.83,143.85c-3.94-3.93-7.52-8.11-9.87-13.24A42,42,0,0,1,69.38,108a39.13,39.13,0,0,1,9.09-21.37c6-7,13.43-11.18,22.75-11.78,7.26-.47,13.5,2.16,19.25,6.22a61.83,61.83,0,0,1,12.49,12c1.09,1.36,1.07,1.36,2.14,0,4.77-5.84,10.08-11.07,16.78-14.7,10.18-5.51,20.24-4.79,29.81,1.29,9.92,6.29,15.11,15.76,16.86,27.24l.48,3.24Zm-5.43-3.34c-.12-1.46-.11-3.28-.4-5.09-1.77-10.72-6.73-19.35-16.55-24.58a22,22,0,0,0-18.74-1.42,38.73,38.73,0,0,0-13.39,9.18,73.26,73.26,0,0,0-8.07,9.6,2.79,2.79,0,0,1-4.78,0c-.42-.53-.8-1.09-1.21-1.63a58.66,58.66,0,0,0-13.55-13.59c-3.8-2.63-7.89-4.67-12.59-4.93-8.94-.49-16.08,3.22-21.77,9.89a33.63,33.63,0,0,0-7.74,18.15,37,37,0,0,0,3.1,20.14c2.19,4.81,5.72,8.55,9.36,12.2Q110.1,163.48,133,186.27c.85.85,1.26.92,2.15,0q24.67-24.75,49.43-49.44a13,13,0,0,0,1-1A35.83,35.83,0,0,0,193.6,112.67Z"/></svg>